<svg width="45" height="45" viewBox="0 0 45 45" fill="none" xmlns="http://www.w3.org/2000/svg">
<path d="M6.37594 0.187988C2.85921 0.187988 0 3.0472 0 6.56393V38.4436C0 41.9604 2.85921 44.8196 6.37594 44.8196H16.159V30.2944H10.8989V22.5038H16.159V19.1464C16.159 10.4692 20.0842 6.44438 28.612 6.44438C30.2259 6.44438 33.0154 6.76318 34.1611 7.08197V14.1354C33.5633 14.0756 32.5173 14.0357 31.2122 14.0357C27.028 14.0357 25.4141 15.6198 25.4141 19.7342V22.5038H33.7427L32.3081 30.2944H25.4041V44.8196H38.2556C41.7724 44.8196 44.6316 41.9604 44.6316 38.4436V6.56393C44.6316 3.0472 41.7724 0.187988 38.2556 0.187988H6.37594Z" fill="#D9C0A4"/>
</svg>
