<svg width="64" height="64" viewBox="0 0 64 64" fill="none" xmlns="http://www.w3.org/2000/svg">
<path d="M9.45376 29.0387H9.45317C9.03296 29.0387 8.69226 29.3794 8.69226 29.7997V31.1807C8.69226 33.4024 10.1219 35.3239 12.2499 35.9623L13.3968 36.3064C13.7994 36.4273 14.2237 36.1989 14.3445 35.7964L14.3446 35.7958C14.4653 35.3933 14.237 34.9689 13.8344 34.8482L12.6875 34.5041C11.2199 34.0636 10.2149 32.7128 10.2149 31.1805V29.7997C10.2148 29.3794 9.87409 29.0387 9.45376 29.0387Z" fill="#FFAD0D"/>
<path d="M12.1476 40.1049L12.1864 40.1155L13.912 46.0125L13.3029 54.5021H12.3437C11.9232 54.5021 11.5824 54.8429 11.5824 55.2634C11.5824 55.6838 11.9232 56.0246 12.3437 56.0246H20.8156L22.9244 45.2286L21.9328 38.3845C21.8304 37.6787 21.3282 37.0962 20.6451 36.8913L17.1188 35.8333C16.7161 35.7126 16.2919 35.941 16.1712 36.3435L16.171 36.3441C16.0503 36.7466 16.2787 37.1708 16.6812 37.2916L20.2075 38.3495C20.3229 38.3842 20.4086 38.4836 20.426 38.6028L21.3803 45.1907L19.5616 54.502H17.9671L19.1758 45.1723L18.0173 40.1236L12.5546 38.6377C8.41404 37.4654 5.52241 33.6413 5.52241 29.3381V24.9152C5.79541 25.185 6.09863 25.427 6.43171 25.6305L8.55704 26.9291C9.37417 27.4284 10.2903 27.678 11.2064 27.678C12.1224 27.678 13.0385 27.4284 13.8556 26.9291L15.9809 25.6305C16.8737 25.085 17.5629 24.2746 17.9764 23.338C19.9868 26.121 23.2546 27.8389 26.7556 27.8389H36.2366C40.2657 27.8389 43.2764 31.9958 43.2764 35.7126C43.2764 37.5188 42.593 39.2363 41.352 40.5489L40.9561 40.9678L40.913 41.0404C39.9093 42.7289 40.1371 44.887 41.4945 46.3068C41.864 46.6934 41.9901 47.2502 41.8236 47.7579L39.6116 54.5021H37.9464L40.0413 47.6715L39.3779 47.4169C36.2629 46.2212 33.7455 44.217 31.8957 41.46C31.017 40.1503 30.5057 38.9714 30.2472 38.2767C30.1109 37.9102 29.7206 37.7059 29.342 37.8043L29.3404 37.8048C28.9056 37.9178 28.661 38.3815 28.8171 38.8026C28.9348 39.1199 29.0965 39.5193 29.3112 39.9773H24.4796C24.0594 39.9773 23.7187 40.318 23.7187 40.7382V40.7389C23.7187 41.1592 24.0594 41.4998 24.4796 41.4998H26.6151C27.8504 43.4045 29.3032 44.9806 30.9388 46.1885C32.2147 47.131 33.5802 47.8264 35.0224 48.2765L33.0283 54.5021H31.8967C31.4763 54.5021 31.1355 54.8429 31.1355 55.2634C31.1355 55.6838 31.4763 56.0246 31.8967 56.0246H40.7145L43.2701 48.2326C43.6102 47.1955 43.3554 46.0585 42.6053 45.2658C41.7438 44.3556 41.5746 42.9772 42.1819 41.8872L42.4583 41.5948C42.7585 41.2771 43.0308 40.9393 43.2762 40.5859V43.9818C43.2762 50.1648 47.9599 55.2733 53.9656 55.9482L54.0135 55.9598H54.0661C54.4781 56.0025 54.896 56.0248 55.3189 56.0248H58.2152C58.6486 56.0248 59 55.6734 59 55.2401C59 54.8423 58.7024 54.5083 58.3076 54.4615C55.4086 54.1181 53.1528 51.645 53.1528 48.6551V40.6908C53.1528 33.3096 47.56 27.2109 40.3897 26.4075L40.3482 26.3871H40.2017C39.7334 26.3409 39.2587 26.3167 38.7786 26.3167H36.2361H26.7551C23.2226 26.3167 19.9667 24.2812 18.4122 21.1182V16.8281C18.4122 16.8112 18.4111 16.7946 18.411 16.7777H18.4122V8.46803C18.4122 8.07217 18.2671 7.68322 17.9836 7.40694C17.5082 6.94398 16.7968 6.87699 16.2535 7.20175C15.3746 7.72667 14.6201 8.40127 14.011 9.20692C13.4403 9.96151 13.0088 10.8304 12.7406 11.747H9.67188C9.40368 10.8305 8.97222 9.96163 8.40151 9.20692C7.8007 8.41251 7.05864 7.74553 6.19548 7.22377C5.88278 7.03486 5.51035 6.95405 5.15232 7.02608C4.46168 7.16509 4 7.76532 4 8.42727V16.7776H4.00129C4.00105 16.7945 4 16.8111 4 16.828V21.2949C4 21.3856 4.00398 21.4759 4.0089 21.5661H4V29.3381C4 34.3194 7.34733 38.7458 12.1476 40.1049ZM16.7375 41.3533L17.6309 45.2471L16.4319 54.502H14.8294L15.4502 45.8478L13.91 40.5841L16.7375 41.3533ZM28.4609 41.4997H30.1207C30.2668 41.7449 30.4244 41.9967 30.5955 42.2537C31.4582 43.5499 32.7669 45.1313 34.6503 46.5384C31.9001 45.4547 29.8816 43.462 28.4609 41.4997ZM34.6274 54.5021L36.503 48.6468C37.0224 48.7453 37.5503 48.8141 38.0869 48.8521L36.3542 54.5021H34.6274ZM47.3359 39.244C47.3568 39.6462 47.6924 39.9595 48.095 39.9595C48.5327 39.9595 48.8787 39.5911 48.8555 39.1539C48.719 36.5816 47.9298 34.0954 46.5525 31.9187C45.8789 30.8542 45.0775 29.8847 44.1723 29.0271C48.5721 31.0696 51.631 35.5293 51.631 40.6907V48.655C51.631 51.0147 52.7457 53.1188 54.4763 54.4687C54.3873 54.4616 54.2995 54.4506 54.2109 54.4413L54.1901 54.4363H54.1627C54.1539 54.4352 54.145 54.4344 54.1361 54.4336C51.133 53.9868 48.8768 51.372 48.8768 48.3233V42.8049C48.8768 42.3847 48.5363 42.044 48.1159 42.044H48.1153C47.6951 42.044 47.3543 42.3847 47.3543 42.8049V48.3233C47.3543 49.4989 47.6245 50.6222 48.1073 51.6304C46.0728 49.7108 44.7993 46.9931 44.7993 43.9819V35.7128C44.7993 33.6146 44.0378 31.4673 42.6975 29.734C45.4523 32.1143 47.1434 35.5164 47.3359 39.244ZM15.2258 10.1254C15.6827 9.52115 16.2422 9.00782 16.8904 8.59768V13.2058C16.1945 12.5219 15.3031 12.0367 14.3088 11.8422C14.5263 11.2251 14.8354 10.6416 15.2258 10.1254ZM5.52253 8.59768C6.17077 9.00782 6.73024 9.52115 7.18723 10.1254C7.5777 10.6417 7.88678 11.2252 8.10415 11.8422C7.10982 12.0367 6.21844 12.5219 5.52253 13.2058V8.59768ZM5.52253 16.8281C5.52253 14.8659 7.11884 13.2695 9.08114 13.2695H13.3318C15.2941 13.2695 16.8904 14.8658 16.8904 16.8281V18.4989L15.9046 18.4967C13.9439 18.4967 12.328 20.0019 12.1516 21.9174L11.1912 22.8031L10.2773 22.0135V21.8368C10.2773 20.5749 9.69765 18.4579 5.8152 18.4579H5.52253V16.8281ZM5.52253 19.9804H5.8152C8.75473 19.9804 8.75473 21.2813 8.75473 21.8368V22.7102L10.1959 23.9552C10.482 24.2024 10.8364 24.3255 11.1903 24.3255C11.5603 24.3255 11.9299 24.1909 12.2209 23.9231L13.6582 22.5995V22.2656C13.6582 21.027 14.6659 20.0192 15.9046 20.0192L16.8904 20.0214V21.295C16.8904 22.5261 16.2378 23.6897 15.1873 24.3315L13.062 25.6302C11.9176 26.3296 10.4957 26.3295 9.3511 25.6302L7.22577 24.3315C6.17522 23.6897 5.52264 22.5261 5.52264 21.295V19.9804H5.52253Z" fill="#FFAD0D"/>
</svg>
