<svg width="253" height="23" viewBox="0 0 253 23" fill="none" xmlns="http://www.w3.org/2000/svg">
<path d="M10.6676 5.1886C9.9821 5.1886 9.36517 5.21496 8.81678 5.26769C8.27893 5.32042 7.82019 5.44697 7.44053 5.64735C7.06088 5.84772 6.77087 6.14828 6.57049 6.54902C6.37012 6.93922 6.26993 7.47707 6.26993 8.16255V8.96932H22.6583V13.6043H6.26993V22.2888H0.401123V7.67217C0.401123 6.5543 0.564585 5.55243 0.891509 4.66658C1.22898 3.78072 1.78791 3.03723 2.56831 2.43611C3.34871 1.82445 4.38221 1.36043 5.66882 1.04405C6.95542 0.717123 8.5584 0.553661 10.4778 0.553661H23.4334V5.1886H10.6676Z" fill="#FFAD0D"/>
<path d="M53.6741 11.4371C53.6741 13.3037 53.3314 14.9541 52.6459 16.3884C51.9604 17.8121 50.9796 19.0038 49.7036 19.9635C48.4275 20.9231 46.8773 21.6508 45.0528 22.1465C43.2389 22.6316 41.1983 22.8741 38.9309 22.8741C36.6635 22.8741 34.6123 22.6316 32.7773 22.1465C30.9529 21.6508 29.3974 20.9231 28.1108 19.9635C26.8242 19.0038 25.8329 17.8121 25.1368 16.3884C24.4408 14.9541 24.0928 13.3037 24.0928 11.4371C24.0928 9.57043 24.4408 7.92527 25.1368 6.50157C25.8329 5.06732 26.8242 3.87036 28.1108 2.91068C29.3974 1.951 30.9529 1.2286 32.7773 0.743488C34.6123 0.247829 36.6635 0 38.9309 0C41.1983 0 43.2389 0.247829 45.0528 0.743488C46.8773 1.2286 48.4275 1.951 49.7036 2.91068C50.9796 3.87036 51.9604 5.06732 52.6459 6.50157C53.3314 7.92527 53.6741 9.57043 53.6741 11.4371ZM47.742 11.4371C47.742 10.625 47.6102 9.81826 47.3466 9.01677C47.0935 8.20474 46.6347 7.47707 45.9703 6.83376C45.3165 6.19046 44.4201 5.66844 43.2811 5.26769C42.1421 4.86695 40.6921 4.66658 38.9309 4.66658C37.7498 4.66658 36.711 4.76149 35.8146 4.95132C34.9182 5.1306 34.143 5.3837 33.4892 5.71062C32.8354 6.03755 32.287 6.42247 31.844 6.8654C31.4011 7.29779 31.0478 7.76708 30.7842 8.27328C30.5205 8.76894 30.3307 9.29097 30.2147 9.83936C30.1092 10.3772 30.0565 10.9098 30.0565 11.4371C30.0565 11.9749 30.1092 12.518 30.2147 13.0664C30.3307 13.6148 30.5205 14.1421 30.7842 14.6483C31.0478 15.144 31.4011 15.608 31.844 16.0404C32.287 16.4727 32.8354 16.8524 33.4892 17.1793C34.143 17.4957 34.9182 17.7488 35.8146 17.9386C36.711 18.1179 37.7498 18.2076 38.9309 18.2076C40.6921 18.2076 42.1421 18.0072 43.2811 17.6064C44.4201 17.2057 45.3165 16.6837 45.9703 16.0404C46.6347 15.3971 47.0935 14.6747 47.3466 13.8732C47.6102 13.0611 47.742 12.2491 47.742 11.4371Z" fill="#FFAD0D"/>
<path d="M70.4845 11.1365L80.7985 22.2888H73.759L66.9569 14.9647L60.1864 22.2888H53.1628L63.4609 11.1365L53.669 0.553661H60.7085L66.9569 7.35579L73.237 0.553661H80.2764L70.4845 11.1365Z" fill="#FFAD0D"/>
<path d="M114.941 20.8019C114.182 21.1182 113.417 21.403 112.648 21.6561C111.878 21.9092 111.082 22.1254 110.259 22.3046C109.436 22.4945 108.566 22.6368 107.649 22.7318C106.742 22.8267 105.766 22.8741 104.722 22.8741C102.508 22.8741 100.467 22.6368 98.6004 22.1623C96.7443 21.6877 95.1413 20.9759 93.7915 20.0267C92.4521 19.067 91.4081 17.8754 90.6593 16.4517C89.9106 15.0174 89.5362 13.3459 89.5362 11.4371C89.5362 9.52825 89.9106 7.86199 90.6593 6.43829C91.4081 5.00405 92.4521 3.81235 93.7915 2.86322C95.1413 1.90354 96.7443 1.18642 98.6004 0.71185C100.467 0.237283 102.508 0 104.722 0C105.766 0 106.742 0.0474567 107.649 0.14237C108.566 0.237283 109.436 0.379654 110.259 0.56948C111.082 0.748761 111.878 0.964953 112.648 1.21806C113.417 1.47116 114.182 1.7559 114.941 2.07228V7.35579C114.34 7.02886 113.707 6.70721 113.043 6.39084C112.379 6.06391 111.646 5.7739 110.844 5.5208C110.043 5.25715 109.162 5.04623 108.202 4.88804C107.243 4.71931 106.162 4.63494 104.96 4.63494C103.114 4.63494 101.58 4.82476 100.356 5.20442C99.1435 5.58407 98.1733 6.09028 97.4456 6.72303C96.718 7.35579 96.2065 8.08346 95.9112 8.90604C95.6159 9.71808 95.4683 10.5618 95.4683 11.4371C95.4683 12.0171 95.5316 12.5918 95.6581 13.1613C95.7847 13.7203 95.9956 14.2528 96.2909 14.759C96.5862 15.2547 96.9711 15.7134 97.4456 16.1353C97.9202 16.5571 98.5108 16.9209 99.2174 17.2268C99.9239 17.5326 100.747 17.7752 101.685 17.9545C102.634 18.1232 103.726 18.2076 104.96 18.2076C106.162 18.2076 107.243 18.1337 108.202 17.9861C109.162 17.8279 110.043 17.6223 110.844 17.3692C111.646 17.116 112.379 16.8313 113.043 16.5149C113.707 16.188 114.34 15.8558 114.941 15.5183V20.8019Z" fill="#FFAD0D"/>
<path d="M145.625 11.4371C145.625 13.3037 145.282 14.9541 144.597 16.3884C143.911 17.8121 142.93 19.0038 141.654 19.9635C140.378 20.9231 138.828 21.6508 137.004 22.1465C135.19 22.6316 133.149 22.8741 130.882 22.8741C128.614 22.8741 126.563 22.6316 124.728 22.1465C122.904 21.6508 121.348 20.9231 120.062 19.9635C118.775 19.0038 117.784 17.8121 117.088 16.3884C116.392 14.9541 116.044 13.3037 116.044 11.4371C116.044 9.57043 116.392 7.92527 117.088 6.50157C117.784 5.06732 118.775 3.87036 120.062 2.91068C121.348 1.951 122.904 1.2286 124.728 0.743488C126.563 0.247829 128.614 0 130.882 0C133.149 0 135.19 0.247829 137.004 0.743488C138.828 1.2286 140.378 1.951 141.654 2.91068C142.93 3.87036 143.911 5.06732 144.597 6.50157C145.282 7.92527 145.625 9.57043 145.625 11.4371ZM139.693 11.4371C139.693 10.625 139.561 9.81826 139.297 9.01677C139.044 8.20474 138.586 7.47707 137.921 6.83376C137.267 6.19046 136.371 5.66844 135.232 5.26769C134.093 4.86695 132.643 4.66658 130.882 4.66658C129.701 4.66658 128.662 4.76149 127.765 4.95132C126.869 5.1306 126.094 5.3837 125.44 5.71062C124.786 6.03755 124.238 6.42247 123.795 6.8654C123.352 7.29779 122.999 7.76708 122.735 8.27328C122.471 8.76894 122.282 9.29097 122.166 9.83936C122.06 10.3772 122.007 10.9098 122.007 11.4371C122.007 11.9749 122.06 12.518 122.166 13.0664C122.282 13.6148 122.471 14.1421 122.735 14.6483C122.999 15.144 123.352 15.608 123.795 16.0404C124.238 16.4727 124.786 16.8524 125.44 17.1793C126.094 17.4957 126.869 17.7488 127.765 17.9386C128.662 18.1179 129.701 18.2076 130.882 18.2076C132.643 18.2076 134.093 18.0072 135.232 17.6064C136.371 17.2057 137.267 16.6837 137.921 16.0404C138.586 15.3971 139.044 14.6747 139.297 13.8732C139.561 13.0611 139.693 12.2491 139.693 11.4371Z" fill="#FFAD0D"/>
<path d="M158.322 5.1886C157.637 5.1886 157.02 5.21496 156.472 5.26769C155.934 5.32042 155.475 5.44697 155.095 5.64735C154.716 5.84772 154.426 6.14828 154.225 6.54902C154.025 6.93922 153.925 7.47707 153.925 8.16255V8.96932H170.313V13.6043H153.925V22.2888H148.056V7.67217C148.056 6.5543 148.219 5.55243 148.546 4.66658C148.884 3.78072 149.443 3.03723 150.223 2.43611C151.004 1.82445 152.037 1.36043 153.324 1.04405C154.61 0.717123 156.213 0.553661 158.133 0.553661H171.088V5.1886H158.322Z" fill="#FFAD0D"/>
<path d="M183.469 5.1886C182.784 5.1886 182.167 5.21496 181.619 5.26769C181.081 5.32042 180.622 5.44697 180.242 5.64735C179.863 5.84772 179.573 6.14828 179.372 6.54902C179.172 6.93922 179.072 7.47707 179.072 8.16255V8.96932H195.46V13.6043H179.072V22.2888H173.203V7.67217C173.203 6.5543 173.366 5.55243 173.693 4.66658C174.031 3.78072 174.59 3.03723 175.37 2.43611C176.151 1.82445 177.184 1.36043 178.471 1.04405C179.757 0.717123 181.36 0.553661 183.28 0.553661H196.235V5.1886H183.469Z" fill="#FFAD0D"/>
<path d="M222.585 21.2131C220.802 21.8037 219.02 22.2256 217.238 22.4787C215.466 22.7423 213.652 22.8741 211.796 22.8741C209.423 22.8741 207.309 22.621 205.453 22.1148C203.607 21.5981 202.052 20.8546 200.786 19.8844C199.521 18.9141 198.556 17.7277 197.891 16.3251C197.227 14.9225 196.895 13.3353 196.895 11.5636C196.895 9.91845 197.227 8.39456 197.891 6.99195C198.566 5.5788 199.515 4.35547 200.739 3.32197C201.972 2.27792 203.459 1.46588 205.2 0.885858C206.94 0.295286 208.88 0 211.021 0C212.993 0 214.796 0.268921 216.431 0.806764C218.076 1.33406 219.484 2.11973 220.655 3.16378C221.836 4.20783 222.748 5.49443 223.391 7.02359C224.045 8.55275 224.372 10.3139 224.372 12.3071V13.7624H202.953C203.143 14.4479 203.454 15.0754 203.887 15.6449C204.33 16.2144 204.925 16.6995 205.674 17.1002C206.423 17.501 207.34 17.8121 208.427 18.0335C209.523 18.255 210.831 18.3657 212.35 18.3657C213.425 18.3657 214.48 18.3025 215.513 18.1759C216.547 18.0388 217.512 17.8648 218.408 17.6539C219.305 17.4324 220.111 17.1899 220.829 16.9262C221.556 16.6626 222.142 16.3989 222.585 16.1353V21.2131ZM218.535 9.4597C218.482 8.92186 218.319 8.3682 218.044 7.79872C217.781 7.21869 217.359 6.69667 216.779 6.23265C216.199 5.76863 215.44 5.38897 214.501 5.09369C213.562 4.78785 212.392 4.63494 210.989 4.63494C209.671 4.63494 208.532 4.7984 207.572 5.12532C206.613 5.45225 205.806 5.85827 205.152 6.34338C204.509 6.82849 204.008 7.35052 203.649 7.90945C203.291 8.46838 203.059 8.98513 202.953 9.4597H218.535Z" fill="#FFAD0D"/>
<path d="M251.022 21.2131C249.24 21.8037 247.457 22.2256 245.675 22.4787C243.903 22.7423 242.089 22.8741 240.233 22.8741C237.861 22.8741 235.746 22.621 233.89 22.1148C232.044 21.5981 230.489 20.8546 229.223 19.8844C227.958 18.9141 226.993 17.7277 226.329 16.3251C225.664 14.9225 225.332 13.3353 225.332 11.5636C225.332 9.91845 225.664 8.39456 226.329 6.99195C227.003 5.5788 227.953 4.35547 229.176 3.32197C230.41 2.27792 231.897 1.46588 233.637 0.885858C235.377 0.295286 237.317 0 239.458 0C241.43 0 243.234 0.268921 244.868 0.806764C246.513 1.33406 247.921 2.11973 249.092 3.16378C250.273 4.20783 251.185 5.49443 251.829 7.02359C252.482 8.55275 252.809 10.3139 252.809 12.3071V13.7624H231.391C231.58 14.4479 231.892 15.0754 232.324 15.6449C232.767 16.2144 233.363 16.6995 234.111 17.1002C234.86 17.501 235.778 17.8121 236.864 18.0335C237.961 18.255 239.268 18.3657 240.787 18.3657C241.863 18.3657 242.917 18.3025 243.951 18.1759C244.984 18.0388 245.949 17.8648 246.846 17.6539C247.742 17.4324 248.549 17.1899 249.266 16.9262C249.994 16.6626 250.579 16.3989 251.022 16.1353V21.2131ZM246.972 9.4597C246.919 8.92186 246.756 8.3682 246.482 7.79872C246.218 7.21869 245.796 6.69667 245.216 6.23265C244.636 5.76863 243.877 5.38897 242.938 5.09369C242 4.78785 240.829 4.63494 239.427 4.63494C238.108 4.63494 236.969 4.7984 236.01 5.12532C235.05 5.45225 234.243 5.85827 233.589 6.34338C232.946 6.82849 232.445 7.35052 232.087 7.90945C231.728 8.46838 231.496 8.98513 231.391 9.4597H246.972Z" fill="#FFAD0D"/>
</svg>
