<svg width="50" height="51" viewBox="0 0 50 51" fill="none" xmlns="http://www.w3.org/2000/svg">
<path d="M23.5705 7.10137H26.3801C27.3167 7.10137 27.9411 6.47699 27.9411 5.54043C27.9411 4.60387 27.3167 3.97949 26.3801 3.97949H23.5705C22.6339 3.97949 22.0095 4.60387 22.0095 5.54043C22.0095 6.47699 22.79 7.10137 23.5705 7.10137Z" fill="#D9C0A4"/>
<path d="M37.6189 19.5887H34.8092L34.3409 16.3107C34.1848 12.0962 29.9703 8.66211 24.9753 8.66211C20.2924 8.66211 16.5462 11.3157 15.6096 14.9059H10.9268C10.4585 14.9059 9.99025 15.2181 9.67806 15.5302C9.36587 15.9985 9.36587 16.4668 9.52196 16.9351L13.8926 30.2031L12.4877 42.5345V42.6906C12.4877 45.5003 14.6731 47.6856 17.4828 47.6856H32.4678C35.2775 47.6856 37.4628 45.5003 37.4628 42.6906V42.5345L36.9945 38.32H37.6189C39.3359 38.32 41.0529 37.2273 42.1456 35.1981C43.0822 33.481 43.7065 31.2957 43.7065 28.9543C43.7065 23.6471 41.0529 19.5887 37.6189 19.5887ZM24.9753 11.784C27.785 11.784 29.9703 13.0327 30.9068 14.9059H19.0437C19.8242 13.0327 22.1656 11.784 24.9753 11.784ZM13.1121 18.0277H15.2974L14.8292 22.8667L13.1121 18.0277ZM32.4678 44.5637H17.4828C16.5462 44.5637 15.6096 43.7832 15.6096 42.6906L17.0145 30.047L18.4193 18.0277H31.3751L34.3409 42.6906C34.3409 43.7832 33.4043 44.5637 32.4678 44.5637ZM39.492 33.6371C38.8676 34.5737 38.2432 35.1981 37.6189 35.1981H36.6823L35.1214 22.7106H37.6189C39.0237 22.7106 40.5847 25.3642 40.5847 28.9543C40.5847 30.6714 40.1164 32.3884 39.492 33.6371Z" fill="#D9C0A4"/>
</svg>
