<svg width="57" height="57" viewBox="0 0 57 57" fill="none" xmlns="http://www.w3.org/2000/svg">
<path d="M43.5138 44.4315H45.0883C49.4617 44.4315 52.9604 40.9327 52.9604 36.5593C52.9604 32.5358 49.8116 29.212 45.963 28.8621V26.9378C45.963 25.8882 45.2632 25.1885 44.2136 25.1885H12.725C11.6754 25.1885 10.9757 25.8882 10.9757 26.9378V35.6847C10.9757 41.4576 13.7747 46.5307 17.9731 49.6796H9.22632C8.1767 49.6796 7.47696 50.3793 7.47696 51.4289C7.47696 52.4785 8.1767 53.1783 9.22632 53.1783H47.7123C48.7619 53.1783 49.4617 52.4785 49.4617 51.4289C49.4617 50.3793 48.7619 49.6796 47.7123 49.6796H38.9655C40.8898 48.2801 42.4642 46.5307 43.5138 44.4315ZM49.4617 36.5593C49.4617 39.0084 47.5374 40.9327 45.0883 40.9327C45.6131 39.3583 45.963 37.434 45.963 35.6847V32.3609C47.8873 32.7107 49.4617 34.4601 49.4617 36.5593ZM42.4642 28.6872V32.8857C40.5399 33.7604 35.2918 35.3348 29.1691 32.3609C23.0463 29.3869 17.6233 30.9614 14.4744 32.5358V28.6872H42.4642ZM14.4744 36.5593C16.2238 35.3348 21.4719 32.5358 27.5946 35.5097C30.7435 37.0841 33.7174 37.434 36.3415 37.434C38.7906 37.434 40.8898 36.9092 42.4642 36.5593C42.2893 38.3087 41.9394 40.0581 41.2397 41.4576C41.0647 41.6325 40.8898 41.9824 40.8898 42.1573C38.4407 46.5307 33.8923 49.5046 28.6443 49.5046C21.122 49.6796 14.9992 43.9067 14.4744 36.5593Z" fill="#D9C0A4"/>
<path d="M19.7225 19.9406H24.9706C25.4954 19.9406 25.8453 20.2904 25.8453 20.8152V21.6899C25.8453 22.7395 26.5451 23.4393 27.5947 23.4393C28.6443 23.4393 29.344 22.7395 29.344 21.6899V20.8152C29.344 18.3661 27.4197 16.4418 24.9706 16.4418H19.7225C19.1977 16.4418 18.8479 16.092 18.8479 15.5672C18.8479 15.0423 19.1977 14.6925 19.7225 14.6925H36.3415C39.3154 14.6925 41.5896 12.4183 41.5896 9.44438C41.5896 6.47046 39.3154 4.19629 36.3415 4.19629H18.8479C17.7982 4.19629 17.0985 4.89603 17.0985 5.94565C17.0985 6.99527 17.7982 7.69502 18.8479 7.69502H36.3415C37.3911 7.69502 38.0909 8.39476 38.0909 9.44438C38.0909 10.494 37.3911 11.1937 36.3415 11.1937H19.7225C17.2734 11.1937 15.3491 13.118 15.3491 15.5672C15.3491 18.0163 17.2734 19.9406 19.7225 19.9406Z" fill="#D9C0A4"/>
</svg>
