<svg width="45" height="45" viewBox="0 0 45 45" fill="none" xmlns="http://www.w3.org/2000/svg">
<path d="M19.3669 18.0904C18.7867 18.4783 18.2886 18.9767 17.9009 19.5571C17.5133 20.1376 17.2438 20.7887 17.1079 21.4732C16.8332 22.8558 17.119 24.2908 17.9024 25.4626C18.6859 26.6344 19.9027 27.447 21.2852 27.7217C22.6678 27.9963 24.1028 27.7105 25.2746 26.9271C26.4464 26.1437 27.259 24.9268 27.5337 23.5443C27.8083 22.1617 27.5225 20.7267 26.7391 19.5549C25.9557 18.3831 24.7389 17.5705 23.3563 17.2958C21.9738 17.0212 20.5387 17.307 19.3669 18.0904ZM33.5434 11.2761C33.0254 10.7581 32.3977 10.3496 31.7103 10.0807C29.9071 9.37333 25.972 9.40321 23.4316 9.4331C23.0231 9.4331 22.6445 9.44306 22.3158 9.44306C21.987 9.44306 21.5985 9.44306 21.1801 9.4331C18.6397 9.40321 14.7244 9.36336 12.9212 10.0807C12.2338 10.3496 11.6162 10.7581 11.0882 11.2761C10.5602 11.7942 10.1617 12.4218 9.89267 13.1092C9.18534 14.9124 9.22519 18.8575 9.24511 21.3979C9.24511 21.8064 9.25508 22.185 9.25508 22.5038C9.25508 22.8226 9.25508 23.2011 9.24511 23.6096C9.22519 26.15 9.18534 30.0951 9.89267 31.8983C10.1617 32.5857 10.5701 33.2034 11.0882 33.7314C11.6062 34.2594 12.2338 34.6579 12.9212 34.9269C14.7244 35.6342 18.6596 35.6043 21.2 35.5745C21.6085 35.5745 21.987 35.5645 22.3158 35.5645C22.6445 35.5645 23.0331 35.5645 23.4515 35.5745C25.9919 35.6043 29.9071 35.6442 31.7103 34.9269C32.3977 34.6579 33.0154 34.2495 33.5434 33.7314C34.0714 33.2134 34.4699 32.5857 34.7389 31.8983C35.4562 30.1051 35.4164 26.1799 35.3865 23.6295C35.3865 23.2111 35.3765 22.8226 35.3765 22.4938C35.3765 22.1651 35.3765 21.7865 35.3865 21.3581C35.4164 18.8177 35.4562 14.8925 34.7389 13.0893C34.4699 12.4019 34.0615 11.7842 33.5434 11.2562V11.2761ZM26.8586 15.7094C28.6606 16.9143 29.9102 18.7856 30.3324 20.9117C30.7547 23.0379 30.315 25.2447 29.1102 27.0466C28.5136 27.9389 27.7471 28.7049 26.8545 29.3009C25.9619 29.8969 24.9606 30.3113 23.9078 30.5204C21.7817 30.9426 19.5749 30.503 17.7729 29.2981C15.971 28.0946 14.7209 26.2246 14.2977 24.0994C13.8745 21.9741 14.3129 19.7679 15.5164 17.9659C16.72 16.1639 18.59 14.9138 20.7152 14.4907C22.8404 14.0675 25.0467 14.5059 26.8487 15.7094H26.8586ZM29.7677 15.5799C29.4588 15.3707 29.2098 15.0718 29.0603 14.7231C28.9109 14.3745 28.881 13.9959 28.9508 13.6173C29.0205 13.2387 29.2098 12.91 29.4688 12.641C29.7278 12.372 30.0765 12.1927 30.4451 12.123C30.8137 12.0532 31.2023 12.0831 31.5509 12.2325C31.8996 12.382 32.1985 12.6211 32.4077 12.9299C32.6169 13.2387 32.7265 13.6073 32.7265 13.9859C32.7265 14.235 32.6767 14.484 32.587 14.7132C32.4974 14.9423 32.3479 15.1515 32.1786 15.3308C32.0092 15.5102 31.79 15.6496 31.5609 15.7493C31.3318 15.8489 31.0827 15.8987 30.8336 15.8987C30.4551 15.8987 30.0865 15.7891 29.7776 15.5799H29.7677ZM44.6316 6.56393C44.6316 3.0472 41.7724 0.187988 38.2556 0.187988H6.37594C2.85921 0.187988 0 3.0472 0 6.56393V38.4436C0 41.9604 2.85921 44.8196 6.37594 44.8196H38.2556C41.7724 44.8196 44.6316 41.9604 44.6316 38.4436V6.56393ZM35.5658 35.7538C33.7028 37.6167 31.4414 38.2045 28.891 38.334C26.2609 38.4835 18.3707 38.4835 15.7406 38.334C13.1902 38.2045 10.9288 37.6167 9.06579 35.7538C7.20282 33.8908 6.61504 31.6293 6.49549 29.079C6.34605 26.4489 6.34605 18.5587 6.49549 15.9286C6.625 13.3782 7.20282 11.1167 9.06579 9.25378C10.9288 7.39081 13.2002 6.80303 15.7406 6.68348C18.3707 6.53404 26.2609 6.53404 28.891 6.68348C31.4414 6.81299 33.7028 7.39081 35.5658 9.25378C37.4288 11.1167 38.0165 13.3782 38.1361 15.9286C38.2855 18.5487 38.2855 26.429 38.1361 29.069C38.0066 31.6194 37.4288 33.8808 35.5658 35.7438V35.7538Z" fill="#D9C0A4"/>
</svg>
