<svg width="45" height="45" viewBox="0 0 45 45" fill="none" xmlns="http://www.w3.org/2000/svg">
<path d="M9.17538 22.3643C9.17538 24.8449 9.87274 27.2658 11.1878 29.348L11.4966 29.8461L10.1716 34.6878L15.1429 33.3827L15.6211 33.6716C17.6335 34.8671 19.9447 35.5047 22.3058 35.5047H22.3158C29.5485 35.5047 35.5957 29.6169 35.5957 22.3743C35.5957 18.8675 34.0814 15.5699 31.6008 13.0893C29.1102 10.5987 25.8226 9.23385 22.3158 9.23385C15.0731 9.23385 9.18534 15.1216 9.17538 22.3643ZM27.3767 29.876C26.1214 30.0652 25.1451 29.9656 22.6445 28.8897C18.9784 27.3057 16.4878 23.759 15.9797 23.0417C15.9398 22.982 15.91 22.9521 15.9 22.9322C15.7008 22.6731 14.2861 20.7902 14.2861 18.8476C14.2861 17.0145 15.1827 16.0681 15.6011 15.6297C15.631 15.5998 15.6509 15.5799 15.6709 15.55C16.0295 15.1515 16.4579 15.0519 16.7269 15.0519C16.9859 15.0519 17.2549 15.0519 17.484 15.0619C17.5139 15.0619 17.5338 15.0619 17.5637 15.0619C17.7929 15.0619 18.0818 15.0619 18.3707 15.7393C18.4902 16.0282 18.6695 16.4666 18.8588 16.9149C19.1876 17.7119 19.5263 18.5387 19.5861 18.6683C19.6857 18.8675 19.7555 19.0966 19.616 19.3557C19.2773 20.0331 18.9286 20.3917 18.6895 20.6508C18.3806 20.9696 18.2412 21.119 18.4603 21.5075C19.9846 24.1276 21.5088 25.0342 23.8301 26.1998C24.2286 26.3991 24.4577 26.3692 24.6868 26.1002C24.916 25.8412 25.6731 24.9446 25.9321 24.556C26.1912 24.1575 26.4602 24.2273 26.8188 24.3568C27.1774 24.4863 29.1201 25.4427 29.5186 25.6419C29.5983 25.6818 29.668 25.7117 29.7278 25.7416C30.0068 25.881 30.1961 25.9707 30.2758 26.1002C30.3654 26.2895 30.3654 27.0865 30.0367 28.003C29.7079 28.9295 28.1338 29.7664 27.3767 29.876ZM44.6316 6.56393C44.6316 3.0472 41.7724 0.187988 38.2556 0.187988H6.37594C2.85921 0.187988 0 3.0472 0 6.56393V38.4436C0 41.9604 2.85921 44.8196 6.37594 44.8196H38.2556C41.7724 44.8196 44.6316 41.9604 44.6316 38.4436V6.56393ZM14.7543 36.2419L6.37594 38.4436L8.61748 30.2545C7.23271 27.8636 6.50545 25.1438 6.50545 22.3543C6.51541 13.6472 13.5987 6.56393 22.3058 6.56393C26.5299 6.56393 30.4949 8.20773 33.4836 11.1964C36.4624 14.1852 38.2556 18.1502 38.2556 22.3743C38.2556 31.0814 31.013 38.1647 22.3058 38.1647C19.6558 38.1647 17.0556 37.4972 14.7543 36.2419Z" fill="#D9C0A4"/>
</svg>
